<svg id="Layer_1" data-name="Layer 1" xmlns="http://www.w3.org/2000/svg" viewBox="0 0 2338.64 575.63"><defs><style>.cls-1{opacity:0.05;}.cls-2{fill:#042d46;}.cls-3{fill:#4169ea;}.cls-4{fill:none;stroke:#042d46;stroke-miterlimit:10;stroke-width:8px;}</style></defs><path class="cls-2" d="M1355.2-406.43a6,6,0,0,1-4.9-2,7.09,7.09,0,0,1-1.6-4.5,6.72,6.72,0,0,1,1.6-4.5,6,6,0,0,1,4.9-2h85.1a6.12,6.12,0,0,1,5,2,6.72,6.72,0,0,1,1.6,4.5,7.21,7.21,0,0,1-1.7,4.5c-1.1,1.4-2.8,2-5,2h-34.3v106.5a7.25,7.25,0,0,1-.7,3.3,7.22,7.22,0,0,1-1.8,2.4,8.16,8.16,0,0,1-2.6,1.4,9.82,9.82,0,0,1-2.9.5,8.75,8.75,0,0,1-5.5-1.9,7,7,0,0,1-2.5-5.7v-106.5Z" transform="translate(-788.86 827.15)"/><path class="cls-2" d="M1509.6-292.43a7.17,7.17,0,0,1-2.9-.6,8.52,8.52,0,0,1-2.5-1.7,10.77,10.77,0,0,1-1.8-2.4,5.92,5.92,0,0,1-.7-2.9v-111.7a9.18,9.18,0,0,1,.5-2.8,7.58,7.58,0,0,1,1.6-2.5,8.07,8.07,0,0,1,2.4-1.7,7.27,7.27,0,0,1,2.9-.7h66.5a6,6,0,0,1,4.9,2,6.64,6.64,0,0,1,1.6,4.4,6.72,6.72,0,0,1-1.6,4.5,6,6,0,0,1-4.9,2h-58.3v42.3h55.4a6.12,6.12,0,0,1,5,2,6.64,6.64,0,0,1,1.6,4.4,6.64,6.64,0,0,1-1.6,4.4,6,6,0,0,1-4.9,2h-55.4v46.1h60.8a6,6,0,0,1,4.9,2,6.64,6.64,0,0,1,1.6,4.4,6.72,6.72,0,0,1-1.6,4.5,6,6,0,0,1-4.9,2Z" transform="translate(-788.86 827.15)"/><path class="cls-2" d="M1641.1-355.13a89.34,89.34,0,0,1,3.5-24.7,60.09,60.09,0,0,1,10.7-21.1,51.7,51.7,0,0,1,18-14.3c7.2-3.5,15.8-5.3,25.6-5.3a71.59,71.59,0,0,1,17.1,2,84.21,84.21,0,0,1,14.9,5.1,6.32,6.32,0,0,1,3,2.8,8,8,0,0,1,.9,3.6,7.38,7.38,0,0,1-1.5,4.5,5,5,0,0,1-4.1,2,4.48,4.48,0,0,1-2-.4,107,107,0,0,0-14.1-4.1,62.55,62.55,0,0,0-13-1.5,44.19,44.19,0,0,0-14.2,2.1,37.8,37.8,0,0,0-10.9,5.8,36.26,36.26,0,0,0-7.9,8.7,52.37,52.37,0,0,0-5.3,10.9,61.76,61.76,0,0,0-2.9,12,82.25,82.25,0,0,0-.9,11.8,80.65,80.65,0,0,0,.9,11.6,70,70,0,0,0,2.9,12,52.37,52.37,0,0,0,5.3,10.9,34.64,34.64,0,0,0,7.9,8.7,34.41,34.41,0,0,0,10.9,5.8,44.19,44.19,0,0,0,14.2,2.1,54.23,54.23,0,0,0,6.6-.5,51.12,51.12,0,0,0,7.4-1.5,76.61,76.61,0,0,0,7.7-2.5,43.52,43.52,0,0,0,7.5-3.7,5.23,5.23,0,0,1,1.6-.6,10,10,0,0,1,1.6-.2,5,5,0,0,1,3.8,1.7,6.1,6.1,0,0,1,1.5,4.1,7.16,7.16,0,0,1-1.9,4.8,17.46,17.46,0,0,1-5,4.1,40,40,0,0,1-7.2,3.3,79.3,79.3,0,0,1-8.3,2.5,86.53,86.53,0,0,1-8.6,1.6,56.75,56.75,0,0,1-7.9.5c-9.9,0-18.5-1.7-25.8-5.2a50.91,50.91,0,0,1-18.1-14.2,59.44,59.44,0,0,1-10.6-21A90,90,0,0,1,1641.1-355.13Z" transform="translate(-788.86 827.15)"/><path class="cls-2" d="M1888.6-411.93a7.25,7.25,0,0,1,.7-3.3,5.78,5.78,0,0,1,1.8-2.3,7.68,7.68,0,0,1,2.5-1.4,9.29,9.29,0,0,1,2.9-.5,8.75,8.75,0,0,1,5.5,1.9,6.65,6.65,0,0,1,2.5,5.6v112.1a7.25,7.25,0,0,1-.7,3.3,7.22,7.22,0,0,1-1.8,2.4,8.16,8.16,0,0,1-2.6,1.4,9.67,9.67,0,0,1-2.9.4,8.29,8.29,0,0,1-5.4-1.9,6.65,6.65,0,0,1-2.5-5.6v-51.8h-67v51.8a7.25,7.25,0,0,1-.7,3.3,7.22,7.22,0,0,1-1.8,2.4,8.16,8.16,0,0,1-2.6,1.4,9.67,9.67,0,0,1-2.9.4,8.29,8.29,0,0,1-5.4-1.9,6.65,6.65,0,0,1-2.5-5.6v-112.1a7.25,7.25,0,0,1,.7-3.3,6.83,6.83,0,0,1,1.8-2.3,8.16,8.16,0,0,1,2.6-1.4,9.29,9.29,0,0,1,2.9-.5,8.29,8.29,0,0,1,5.4,1.9,6.65,6.65,0,0,1,2.5,5.6v47h67Z" transform="translate(-788.86 827.15)"/><path class="cls-2" d="M1972.4-408.93a12.87,12.87,0,0,1,.8-4.5,11.2,11.2,0,0,1,2.2-3.3,8.25,8.25,0,0,1,3.2-2,9.86,9.86,0,0,1,3.8-.7,11.15,11.15,0,0,1,5,1.2,12.3,12.3,0,0,1,4.4,3.9l67.4,101.6v-99.6a7.45,7.45,0,0,1,.6-3.1,6.2,6.2,0,0,1,1.7-2.2,7,7,0,0,1,2.4-1.3,8.63,8.63,0,0,1,2.8-.4,8.42,8.42,0,0,1,2.7.4,7,7,0,0,1,2.4,1.3,6.2,6.2,0,0,1,1.7,2.2,7.45,7.45,0,0,1,.6,3.1v109.4a11,11,0,0,1-.9,4.5,10,10,0,0,1-2.4,3.3,9.84,9.84,0,0,1-3.4,2,11,11,0,0,1-4.1.7,12.66,12.66,0,0,1-5.2-1.2,11.78,11.78,0,0,1-4.5-3.9l-66.4-100.2v98.4a6.17,6.17,0,0,1-.7,3.1,6.2,6.2,0,0,1-1.7,2.2,7,7,0,0,1-2.4,1.3,8.63,8.63,0,0,1-2.8.4,8.45,8.45,0,0,1-5.1-1.7,6.33,6.33,0,0,1-2.3-5.3v-109.6Z" transform="translate(-788.86 827.15)"/><path class="cls-2" d="M2136.2-355.53a83.92,83.92,0,0,1,3.9-25.8,58.08,58.08,0,0,1,11.5-20.9,50.67,50.67,0,0,1,18.8-13.5,64.57,64.57,0,0,1,25.6-4.8,64.57,64.57,0,0,1,25.6,4.8,52,52,0,0,1,18.7,13.5,59.44,59.44,0,0,1,11.4,20.9,83.92,83.92,0,0,1,3.9,25.8,83.92,83.92,0,0,1-3.9,25.8,59.44,59.44,0,0,1-11.4,20.9,50.3,50.3,0,0,1-18.7,13.5c-7.4,3.2-15.9,4.8-25.6,4.8s-18.2-1.6-25.6-4.8a51.5,51.5,0,0,1-18.8-13.5,59.63,59.63,0,0,1-11.5-20.9A83.92,83.92,0,0,1,2136.2-355.53Zm17,0a77.73,77.73,0,0,0,2.4,18.9,49.67,49.67,0,0,0,7.6,17,38.85,38.85,0,0,0,13.3,11.8c5.4,2.9,11.9,4.4,19.5,4.4s14-1.5,19.4-4.4a38.74,38.74,0,0,0,13.3-11.8,49.67,49.67,0,0,0,7.6-17,78.35,78.35,0,0,0,2.4-18.9,77.55,77.55,0,0,0-2.4-18.8,51.05,51.05,0,0,0-7.6-17.1,38.74,38.74,0,0,0-13.3-11.8c-5.4-2.9-11.9-4.4-19.4-4.4s-14.1,1.5-19.5,4.4a38.74,38.74,0,0,0-13.3,11.8,51.25,51.25,0,0,0-7.6,17.1A77.55,77.55,0,0,0,2153.2-355.53Z" transform="translate(-788.86 827.15)"/><path class="cls-2" d="M2327.1-292.43a8.15,8.15,0,0,1-3.1-.6,7.16,7.16,0,0,1-2.5-1.6,7.39,7.39,0,0,1-1.7-2.5,7.75,7.75,0,0,1-.7-3v-111.8a7.25,7.25,0,0,1,.7-3.3,6.83,6.83,0,0,1,1.8-2.3,8.16,8.16,0,0,1,2.6-1.4,9.29,9.29,0,0,1,2.9-.5,8.29,8.29,0,0,1,5.4,1.9,6.59,6.59,0,0,1,2.4,5.6v106.5h57.6a6.12,6.12,0,0,1,5,2,6.72,6.72,0,0,1,1.6,4.5,7.09,7.09,0,0,1-1.6,4.5c-1.1,1.4-2.7,2-4.9,2Z" transform="translate(-788.86 827.15)"/><path class="cls-2" d="M2450.3-355.53a83.92,83.92,0,0,1,3.9-25.8,58.08,58.08,0,0,1,11.5-20.9,50.67,50.67,0,0,1,18.8-13.5,64.57,64.57,0,0,1,25.6-4.8,64.57,64.57,0,0,1,25.6,4.8,52,52,0,0,1,18.7,13.5,59.44,59.44,0,0,1,11.4,20.9,83.92,83.92,0,0,1,3.9,25.8,83.92,83.92,0,0,1-3.9,25.8,59.44,59.44,0,0,1-11.4,20.9,50.3,50.3,0,0,1-18.7,13.5c-7.4,3.2-15.9,4.8-25.6,4.8s-18.2-1.6-25.6-4.8a51.5,51.5,0,0,1-18.8-13.5,59.63,59.63,0,0,1-11.5-20.9A83.92,83.92,0,0,1,2450.3-355.53Zm17,0a77.73,77.73,0,0,0,2.4,18.9,49.67,49.67,0,0,0,7.6,17,38.85,38.85,0,0,0,13.3,11.8c5.4,2.9,11.9,4.4,19.5,4.4s14-1.5,19.4-4.4a38.74,38.74,0,0,0,13.3-11.8,49.67,49.67,0,0,0,7.6-17,78.35,78.35,0,0,0,2.4-18.9,77.55,77.55,0,0,0-2.4-18.8,51.05,51.05,0,0,0-7.6-17.1,38.74,38.74,0,0,0-13.3-11.8c-5.4-2.9-11.9-4.4-19.4-4.4s-14.1,1.5-19.5,4.4a38.74,38.74,0,0,0-13.3,11.8,51.25,51.25,0,0,0-7.6,17.1A77.55,77.55,0,0,0,2467.3-355.53Z" transform="translate(-788.86 827.15)"/><path class="cls-2" d="M2723.6-357.93a6.57,6.57,0,0,1,4.9,1.8,6.52,6.52,0,0,1,1.7,4.9v46.5a8,8,0,0,1-1.7,5.3,7.73,7.73,0,0,1-4.2,2.6,149.1,149.1,0,0,1-20,4.7,120.85,120.85,0,0,1-19.2,1.7,77.27,77.27,0,0,1-25.1-3.9,50.05,50.05,0,0,1-19.5-12,55.18,55.18,0,0,1-12.6-20.6c-3-8.3-4.5-17.9-4.5-28.9a82.69,82.69,0,0,1,1.7-15.8,68,68,0,0,1,5.1-15.8,63.16,63.16,0,0,1,8.6-13.5,49.46,49.46,0,0,1,12.2-10.5,59.39,59.39,0,0,1,15.8-6.8,73.33,73.33,0,0,1,19.5-2.4,105.22,105.22,0,0,1,18.8,1.6,75.71,75.71,0,0,1,16.7,4.9,5.59,5.59,0,0,1,2.7,2.3,6.81,6.81,0,0,1,.8,3.1,7.09,7.09,0,0,1-1.6,4.5,4.73,4.73,0,0,1-4.1,2h-.7a1.85,1.85,0,0,1-.7-.2c-2.6-.7-5.3-1.4-8-1.9s-5.5-1.1-8.2-1.5-5.4-.7-7.9-1-4.9-.4-7.1-.4c-8.4,0-15.5,1.4-21.4,4.2a40.28,40.28,0,0,0-14.5,11.5,47.53,47.53,0,0,0-8.2,16.9,73.14,73.14,0,0,0-2.5,18.8,89,89,0,0,0,2.4,21.3,43.16,43.16,0,0,0,7.9,16.7,34.68,34.68,0,0,0,14.3,10.5c5.9,2.4,13.2,3.7,21.8,3.7a95.67,95.67,0,0,0,14.1-1.1,117,117,0,0,0,13.6-2.9v-38.7h-25.2a5.66,5.66,0,0,1-4.5-1.8,6.29,6.29,0,0,1-1.5-4.1,6.29,6.29,0,0,1,1.5-4.1,5.52,5.52,0,0,1,4.5-1.8h34.3Z" transform="translate(-788.86 827.15)"/><path class="cls-2" d="M2799.2-411.93a7.25,7.25,0,0,1,.7-3.3,8.4,8.4,0,0,1,1.8-2.4,8.16,8.16,0,0,1,2.6-1.4,9.29,9.29,0,0,1,2.9-.5,8.29,8.29,0,0,1,5.4,1.9q2.4,1.8,2.4,5.7v112a7.25,7.25,0,0,1-.7,3.3,7.22,7.22,0,0,1-1.8,2.4,8.16,8.16,0,0,1-2.6,1.4,9.67,9.67,0,0,1-2.9.4,8.29,8.29,0,0,1-5.4-1.9,6.59,6.59,0,0,1-2.4-5.6Z" transform="translate(-788.86 827.15)"/><path class="cls-2" d="M2893.6-292.43a7.17,7.17,0,0,1-2.9-.6,8.52,8.52,0,0,1-2.5-1.7,10.77,10.77,0,0,1-1.8-2.4,5.92,5.92,0,0,1-.7-2.9v-111.7a9.18,9.18,0,0,1,.5-2.8,7.58,7.58,0,0,1,1.6-2.5,8.07,8.07,0,0,1,2.4-1.7,7.27,7.27,0,0,1,2.9-.7h66.5a6,6,0,0,1,4.9,2,6.64,6.64,0,0,1,1.6,4.4,6.72,6.72,0,0,1-1.6,4.5,6,6,0,0,1-4.9,2h-58.3v42.3h55.4a6.12,6.12,0,0,1,5,2,6.64,6.64,0,0,1,1.6,4.4,6.64,6.64,0,0,1-1.6,4.4,6,6,0,0,1-4.9,2h-55.4v46.1h60.8a6,6,0,0,1,4.9,2,6.64,6.64,0,0,1,1.6,4.4,6.72,6.72,0,0,1-1.6,4.5,6,6,0,0,1-4.9,2Z" transform="translate(-788.86 827.15)"/><path class="cls-2" d="M3043.7-388.13a16,16,0,0,0,3.1,9.9,25.88,25.88,0,0,0,8.2,7.1,58.72,58.72,0,0,0,11.6,5c4.3,1.4,8.8,2.8,13.4,4.2,5,1.6,9.9,3.3,14.5,5.2a46.61,46.61,0,0,1,12.2,6.9,31.55,31.55,0,0,1,8.4,10.1c2.1,4,3.1,8.8,3.1,14.7a28.9,28.9,0,0,1-3.6,14,32.42,32.42,0,0,1-10,11.2,44.54,44.54,0,0,1-15.1,6.9,70.87,70.87,0,0,1-18.9,2.4,67.38,67.38,0,0,1-13.8-1.3,62.2,62.2,0,0,1-12-3.6,60.21,60.21,0,0,1-10.1-5.3,47.67,47.67,0,0,1-8-6.6,3.91,3.91,0,0,1-1-1.6,6.28,6.28,0,0,1-.3-1.9,7.42,7.42,0,0,1,.5-2.5,8.58,8.58,0,0,1,1.3-2.3,7.28,7.28,0,0,1,1.8-1.7,4,4,0,0,1,2-.7,5.59,5.59,0,0,1,3.3,1.2c1.1.8,2.2,1.5,3.3,2.3,1.9,1.4,4,2.7,6.2,4.1a65.31,65.31,0,0,0,7.5,3.6,57.34,57.34,0,0,0,9.1,2.5,60.83,60.83,0,0,0,10.9.9,51.61,51.61,0,0,0,12.1-1.3,30.42,30.42,0,0,0,9.7-4,20.77,20.77,0,0,0,6.5-6.7,16.43,16.43,0,0,0,2.4-8.6,17.8,17.8,0,0,0-3.1-10.7,26.42,26.42,0,0,0-8.2-7.3,56.26,56.26,0,0,0-11.6-5c-4.3-1.4-8.8-2.8-13.3-4.2-4.9-1.6-9.7-3.4-14.3-5.3a53.55,53.55,0,0,1-12.2-7.1,32.61,32.61,0,0,1-8.5-10,27.93,27.93,0,0,1-3.2-13.4,27,27,0,0,1,3.7-13.8,33.32,33.32,0,0,1,9.8-10.7,45.78,45.78,0,0,1,14.1-6.6,61,61,0,0,1,16.6-2.2,63,63,0,0,1,23.7,4.2,52.17,52.17,0,0,1,18.6,12.8,3.1,3.1,0,0,1,.9,1.8,14.92,14.92,0,0,1,.2,2.1,7.61,7.61,0,0,1-.3,2.1,5.29,5.29,0,0,1-1.1,2.1,7.66,7.66,0,0,1-1.9,1.6,6.09,6.09,0,0,1-2.8.6c-1.7,0-3.7-1.1-5.8-3.2-1.9-1.4-3.9-2.8-6-4.1a44.55,44.55,0,0,0-6.9-3.5,49.62,49.62,0,0,0-8-2.4,45.16,45.16,0,0,0-9.3-.9,45.72,45.72,0,0,0-10.2,1.2,34,34,0,0,0-9.4,3.6,21.69,21.69,0,0,0-6.9,6.2A12.15,12.15,0,0,0,3043.7-388.13Z" transform="translate(-788.86 827.15)"/><path class="cls-3" d="M996.8-403.93c0,12.5-14,22.7-31.3,22.7h-2c-17.3.1-31.4-10-31.5-22.5l-.4-118.2c0-12.5,14-22.7,31.3-22.7h2c17.3-.1,31.4,10,31.5,22.5Z" transform="translate(-788.86 827.15)"/><path class="cls-2" d="M905.9-458.13a119.88,119.88,0,0,1-25.7-21.2,123.34,123.34,0,0,1,6.9-174.4,60.71,60.71,0,0,1-14.5-11.5,59.57,59.57,0,0,1-15.9-39.7c-3.2,2.6-6.3,5.3-9.4,8.1-73.8,68.2-78.3,183.3-10.1,257.1a181.36,181.36,0,0,0,68.9,46.6Z" transform="translate(-788.86 827.15)"/><path class="cls-3" d="M1065.3-674.43a48.64,48.64,0,0,1-21.7,11.7,120.69,120.69,0,0,1,17.8,15.9,123.34,123.34,0,0,1-6.9,174.4,122.9,122.9,0,0,1-83.8,32.8l.2,58.6a181.49,181.49,0,0,0,123.4-48.3c73.8-68.2,78.3-183.3,10.1-257.1a178.52,178.52,0,0,0-23.3-21.2A49.16,49.16,0,0,1,1065.3-674.43Z" transform="translate(-788.86 827.15)"/><path class="cls-2" d="M978-558a46.94,46.94,0,0,0,33.4-57.4,46.94,46.94,0,0,0-57.4-33.4,46.94,46.94,0,0,0-33.4,57.4A46.94,46.94,0,0,0,978-558Z" transform="translate(-788.86 827.15)"/><path class="cls-2" d="M1040.5-674a34.42,34.42,0,0,0,24.5-42.1,34.42,34.42,0,0,0-42.1-24.5,34.42,34.42,0,0,0-24.5,42.1A34.5,34.5,0,0,0,1040.5-674Z" transform="translate(-788.86 827.15)"/><path class="cls-2" d="M923.4-672.73a37.11,37.11,0,0,0,26.4-45.4,37.11,37.11,0,0,0-45.4-26.4,37.11,37.11,0,0,0-26.4,45.4A37.15,37.15,0,0,0,923.4-672.73Z" transform="translate(-788.86 827.15)"/><path class="cls-2" d="M969.2-783.53a22.25,22.25,0,0,0,15.8-27.1,22.2,22.2,0,0,0-27.1-15.8,22.2,22.2,0,0,0-15.8,27.1A22.2,22.2,0,0,0,969.2-783.53Z" transform="translate(-788.86 827.15)"/><polygon class="cls-2" points="171.84 220.43 231.54 125.93 114.84 124.73 169.04 19.33 180.24 25.03 135.34 112.33 254.24 113.63 182.44 227.13 171.84 220.43"/><path class="cls-3" d="M1064.8-360c0,8.4-5.3,15.3-11.9,15.3H885.6c-6.6,0-11.9-6.8-11.9-15.3h0c0-8.4,5.3-15.3,11.9-15.3h167.3c6.5,0,11.9,6.8,11.9,15.3Z" transform="translate(-788.86 827.15)"/><path class="cls-3" d="M1064.8-321.73c0,8.4-5.3,15.3-11.9,15.3H885.6c-6.6,0-11.9-6.8-11.9-15.3h0c0-8.4,5.3-15.3,11.9-15.3h167.3c6.5,0,11.9,6.8,11.9,15.3Z" transform="translate(-788.86 827.15)"/><path class="cls-3" d="M1007.2-281.43c0,8.4-2.2,15.1-5,15.1H932.6c-2.7,0-5-6.8-5-15.1h0c0-8.4,2.2-15.1,5-15.1h69.6c2.8-.1,5,6.7,5,15.1Z" transform="translate(-788.86 827.15)"/><path class="cls-2" d="M1371.3-579.33c-6.5,0-11.4-1.8-14.9-5.4s-5.2-8.7-5.2-15.5v-140.4c0-13.8,6.9-20.6,20.6-20.6H1459c10.4,0,15.5,5.1,15.5,15.3,0,10.4-5.2,15.5-15.5,15.5h-68.3v43.8h62.7c10.5,0,15.8,5.1,15.8,15.3,0,10.4-5.3,15.5-15.8,15.5h-62.7v55.6C1390.7-586.23,1384.2-579.33,1371.3-579.33Z" transform="translate(-788.86 827.15)"/><path class="cls-2" d="M1522.7-729.73c-7.1,0-12.6-1.7-16.4-5s-5.7-8-5.7-14.1q0-9.45,5.7-14.4c3.8-3.3,9.3-5,16.4-5,14.6,0,21.9,6.5,21.9,19.4S1537.3-729.73,1522.7-729.73Zm0,150.2c-6.3,0-11.1-1.8-14.4-5.5s-5-8.8-5-15.4v-87.2c0-14.1,6.5-21.2,19.4-21.2,6.1,0,10.8,1.8,14.1,5.5s5,8.9,5,15.7v87.2c0,6.6-1.6,11.8-4.8,15.4S1529-579.53,1522.7-579.53Z" transform="translate(-788.86 827.15)"/><path class="cls-2" d="M1591.5-579.33c-13.3,0-19.9-6.5-19.9-19.6v-90.5c0-12.9,6.3-19.4,18.9-19.4s18.9,6.5,18.9,19.4v4.6q9.15-22.65,38-24.5c4.2-.3,7.5.7,9.8,3.2s3.5,6.5,3.7,12.1c.3,5.3-.7,9.4-3.2,12.5s-6.6,4.9-12.4,5.6l-5.9.5q-28.5,2.85-28.5,29.1v47.4C1610.9-585.83,1604.4-579.33,1591.5-579.33Z" transform="translate(-788.86 827.15)"/><path class="cls-2" d="M1723.3-578.83a142.35,142.35,0,0,1-23.1-2,78.58,78.58,0,0,1-21.5-6.9c-4.2-2.2-7-5-8.3-8.4a13.55,13.55,0,0,1-.1-9.9,13.45,13.45,0,0,1,6.4-7.3c3.1-1.6,6.6-1.6,10.7.1a107.46,107.46,0,0,0,19.2,6.1,84.59,84.59,0,0,0,16.9,1.8c7.1,0,12.4-1.1,15.8-3.4s5.1-5.3,5.1-9c0-5.9-4.3-9.7-13-11.2l-26.8-4.8c-10.7-1.9-18.9-5.7-24.5-11.5s-8.4-13.3-8.4-22.7a34.86,34.86,0,0,1,7.1-21.9,47,47,0,0,1,19.6-14.3q12.45-5.1,28.8-5.1c15,0,28.2,2.9,39.8,8.7,3.9,1.9,6.3,4.5,7.3,7.9a15.26,15.26,0,0,1-.6,9.9,14.71,14.71,0,0,1-6.6,7.3c-3.1,1.6-6.7,1.5-11-.4a89.79,89.79,0,0,0-15.3-5.5,56,56,0,0,0-13-1.7c-7.6,0-13.2,1.2-16.6,3.7s-5.1,5.6-5.1,9.3c0,5.9,4,9.7,12,11.2l26.8,4.8c11,1.9,19.5,5.6,25.2,11.1s8.7,13,8.7,22.6q0,19.65-15.3,30.6C1753.4-582.43,1739.9-578.83,1723.3-578.83Z" transform="translate(-788.86 827.15)"/><path class="cls-2" d="M1860.9-578.83q-52.8,0-52.8-51.2v-47.9h-10.7c-10,0-15-4.8-15-14.3,0-9.7,5-14.5,15-14.5h10.7v-19.4c0-13.1,6.5-19.6,19.4-19.6,12.7,0,19.1,6.5,19.1,19.6v19.4h24.2c9.9,0,14.8,4.8,14.8,14.5,0,9.5-4.9,14.3-14.8,14.3h-24.2v46.4c0,7.1,1.7,12.5,5,16.1s8.6,5.4,15.9,5.4a32.16,32.16,0,0,0,7.1-.8,51.41,51.41,0,0,1,6.1-1,6.87,6.87,0,0,1,5.9,2.3c1.5,1.7,2.3,5.2,2.3,10.4a26.7,26.7,0,0,1-2,10.8,12.67,12.67,0,0,1-7.1,6.5,49.2,49.2,0,0,1-9,2.2A81.22,81.22,0,0,1,1860.9-578.83Z" transform="translate(-788.86 827.15)"/><path class="cls-2" d="M1926.4-581.63c-13.8,0-20.6-6.9-20.6-20.6v-138.4c0-13.8,6.9-20.6,20.6-20.6h61.7c19.2,0,34,4.2,44.5,12.5s15.7,19.7,15.7,34.2c0,9.5-2.4,17.7-7.1,24.6a42.86,42.86,0,0,1-19.9,15.4c10.2,2.9,18.1,8,23.6,15.3s8.3,16.3,8.3,27c0,16-5.6,28.4-16.7,37.3s-26.3,13.4-45.5,13.4h-64.6Zm17.1-105.7h37.7c19.4,0,29.1-7.5,29.1-22.4s-9.7-22.2-29.1-22.2h-37.7Zm0,76.4h42.1c10.2,0,17.7-2,22.4-5.9s7.1-9.9,7.1-17.8-2.4-13.7-7.1-17.6-12.2-5.9-22.4-5.9h-42.1v47.2Z" transform="translate(-788.86 827.15)"/><path class="cls-2" d="M2099-729.73c-7.1,0-12.6-1.7-16.4-5s-5.7-8-5.7-14.1q0-9.45,5.7-14.4c3.8-3.3,9.3-5,16.4-5,14.6,0,21.9,6.5,21.9,19.4S2113.6-729.73,2099-729.73Zm0,150.2c-6.3,0-11.1-1.8-14.4-5.5s-5-8.8-5-15.4v-87.2c0-14.1,6.5-21.2,19.4-21.2,6.1,0,10.8,1.8,14.1,5.5s5,8.9,5,15.7v87.2c0,6.6-1.6,11.8-4.8,15.4S2105.3-579.53,2099-579.53Z" transform="translate(-788.86 827.15)"/><path class="cls-2" d="M2209.3-578.83q-52.8,0-52.8-51.2v-47.9h-10.7c-10,0-15-4.8-15-14.3,0-9.7,5-14.5,15-14.5h10.7v-19.4c0-13.1,6.5-19.6,19.4-19.6,12.7,0,19.1,6.5,19.1,19.6v19.4h24.2c9.9,0,14.8,4.8,14.8,14.5,0,9.5-4.9,14.3-14.8,14.3H2195v46.4c0,7.1,1.7,12.5,5,16.1s8.6,5.4,15.9,5.4a32.16,32.16,0,0,0,7.1-.8,51.41,51.41,0,0,1,6.1-1,6.87,6.87,0,0,1,5.9,2.3c1.5,1.7,2.3,5.2,2.3,10.4a26.7,26.7,0,0,1-2,10.8,12.67,12.67,0,0,1-7.1,6.5,49.2,49.2,0,0,1-9,2.2A81.22,81.22,0,0,1,2209.3-578.83Z" transform="translate(-788.86 827.15)"/><path class="cls-2" d="M2345.9-581.63c-13.8,0-20.6-6.9-20.6-20.6v-138.4c0-13.8,6.9-20.6,20.6-20.6h49.7q45.9,0,71.1,23.3c16.8,15.5,25.2,37.7,25.2,66.4s-8.4,50.9-25.2,66.5-40.5,23.4-71.1,23.4Zm18.9-32.3h28.5q57.3,0,57.3-57.6,0-57.3-57.3-57.3h-28.5Z" transform="translate(-788.86 827.15)"/><path class="cls-2" d="M2538.6-729.73c-7.1,0-12.6-1.7-16.4-5s-5.7-8-5.7-14.1q0-9.45,5.7-14.4c3.8-3.3,9.3-5,16.4-5,14.6,0,21.9,6.5,21.9,19.4S2553.2-729.73,2538.6-729.73Zm0,150.2c-6.3,0-11.1-1.8-14.4-5.5s-5-8.8-5-15.4v-87.2c0-14.1,6.5-21.2,19.4-21.2,6.1,0,10.8,1.8,14.1,5.5s5,8.9,5,15.7v87.2c0,6.6-1.6,11.8-4.8,15.4S2544.9-579.53,2538.6-579.53Z" transform="translate(-788.86 827.15)"/><path class="cls-2" d="M2647.7-532.93a148.79,148.79,0,0,1-26.3-2.3,90.49,90.49,0,0,1-22.4-6.9c-4.9-2-8.1-4.9-9.4-8.7a14.93,14.93,0,0,1,.1-11,15.13,15.13,0,0,1,6.9-8c3.1-1.8,6.7-1.8,10.6-.1a81.26,81.26,0,0,0,20.8,6.6,109.14,109.14,0,0,0,16.4,1.5q32.55,0,32.6-30.1v-14.3c-3.4,6.5-8.8,11.6-16.1,15.5a50.17,50.17,0,0,1-24,5.9c-11.2,0-21-2.6-29.3-7.8a52.12,52.12,0,0,1-19.4-21.8c-4.6-9.3-6.9-20.3-6.9-32.9,0-12.4,2.3-23.3,6.9-32.6a52,52,0,0,1,19.4-21.8c8.3-5.2,18.1-7.8,29.3-7.8a50.53,50.53,0,0,1,23.7,5.6,37.25,37.25,0,0,1,15.8,14.8v-.5c0-6.3,1.7-11.1,5-14.4s8-5,14.1-5c12.6,0,18.9,6.5,18.9,19.4v93.3q0,31.65-17.1,47.4C2686-538.23,2669.4-532.93,2647.7-532.93Zm.8-80.5c8.5,0,15.3-3,20.5-8.9s7.8-14.2,7.8-24.7-2.6-18.7-7.8-24.6-12-8.8-20.5-8.8c-8.7,0-15.5,2.9-20.6,8.8s-7.6,14.1-7.6,24.6,2.5,18.8,7.6,24.7S2639.8-613.43,2648.5-613.43Z" transform="translate(-788.86 827.15)"/><path class="cls-2" d="M2763.7-729.73c-7.1,0-12.6-1.7-16.4-5s-5.7-8-5.7-14.1q0-9.45,5.7-14.4c3.8-3.3,9.3-5,16.4-5,14.6,0,21.9,6.5,21.9,19.4S2778.3-729.73,2763.7-729.73Zm0,150.2c-6.3,0-11.1-1.8-14.4-5.5s-5-8.8-5-15.4v-87.2c0-14.1,6.5-21.2,19.4-21.2,6.1,0,10.8,1.8,14.1,5.5s5,8.9,5,15.7v87.2c0,6.6-1.6,11.8-4.8,15.4S2769.9-579.53,2763.7-579.53Z" transform="translate(-788.86 827.15)"/><path class="cls-2" d="M2874-578.83q-52.8,0-52.8-51.2v-47.9h-10.7c-10,0-15-4.8-15-14.3,0-9.7,5-14.5,15-14.5h10.7v-19.4c0-13.1,6.5-19.6,19.4-19.6,12.7,0,19.1,6.5,19.1,19.6v19.4h24.2c9.9,0,14.8,4.8,14.8,14.5,0,9.5-4.9,14.3-14.8,14.3h-24.2v46.4c0,7.1,1.7,12.5,5,16.1s8.6,5.4,15.9,5.4a32.16,32.16,0,0,0,7.1-.8,51.41,51.41,0,0,1,6.1-1,6.87,6.87,0,0,1,5.9,2.3c1.5,1.7,2.3,5.2,2.3,10.4a26.7,26.7,0,0,1-2,10.8,12.67,12.67,0,0,1-7.1,6.5,49.2,49.2,0,0,1-9,2.2A81.22,81.22,0,0,1,2874-578.83Z" transform="translate(-788.86 827.15)"/><path class="cls-2" d="M2957.9-578.83c-9.3,0-17.6-1.8-24.7-5.4a43.62,43.62,0,0,1-16.9-14.5,35.47,35.47,0,0,1-6.2-20.6c0-9,2.4-16.2,7.1-21.7s12.5-9.3,23.2-11.6,24.9-3.4,42.6-3.4h9.2v-4.3q0-11.25-5.1-15.9c-3.4-3.1-9.2-4.7-17.3-4.7a75.77,75.77,0,0,0-15,1.7,97.37,97.37,0,0,0-17.6,5.5c-4.8,2-8.8,2.2-12,.4a13,13,0,0,1-6.4-8.2,16.48,16.48,0,0,1,.9-11.1c1.6-3.7,4.8-6.5,9.6-8.2a124.5,124.5,0,0,1,22.6-6.5,106.93,106.93,0,0,1,19.5-1.9c19.4,0,33.8,4.4,43.3,13.1s14.3,22.3,14.3,40.7v56.6c0,13.1-6,19.6-17.8,19.6-12.1,0-18.1-6.5-18.1-19.6v-1.5a31.69,31.69,0,0,1-12.9,15.8C2973.9-580.73,2966.5-578.83,2957.9-578.83Zm8.6-25.7a24.75,24.75,0,0,0,18.1-7.4c4.9-4.9,7.4-11.3,7.4-19.1v-5.1h-8.9c-13.1,0-22.3,1.1-27.8,3.4s-8.2,6.2-8.2,11.9a15.12,15.12,0,0,0,5,11.7C2955.4-606,2960.2-604.53,2966.5-604.53Z" transform="translate(-788.86 827.15)"/><path class="cls-2" d="M3102.6-578.83q-45.15,0-45.1-50.2v-114.9c0-13.1,6.5-19.6,19.4-19.6,12.7,0,19.1,6.5,19.1,19.6v113.4c0,7,1.5,12.1,4.5,15.4a15.25,15.25,0,0,0,11.9,5,26,26,0,0,0,4-.3,24,24,0,0,1,3.7-.3c2.7-.2,4.6.7,5.7,2.5s1.7,5.7,1.7,11.5c0,9.9-4.2,15.5-12.5,16.8-1.7.2-3.7.4-5.9.6A37,37,0,0,1,3102.6-578.83Z" transform="translate(-788.86 827.15)"/><path class="cls-3" d="M2543.9-729.23h-10.4a17,17,0,0,1-17-17v-6.1a17,17,0,0,1,17-17h10.4a17,17,0,0,1,17,17v6.1A17.12,17.12,0,0,1,2543.9-729.23Z" transform="translate(-788.86 827.15)"/><path class="cls-3" d="M2768.6-728.23h-10.4a17,17,0,0,1-17-17v-6.1a17,17,0,0,1,17-17h10.4a17,17,0,0,1,17,17v6.1A17,17,0,0,1,2768.6-728.23Z" transform="translate(-788.86 827.15)"/><path class="cls-2" d="M1252.8-804.33c1.7,46.1,2.5,92.1,3.1,138.2.4,23,.5,46.1.7,69.1l.2,69.1-.2,69.1-.3,34.5-.1,17.3-.2,17.3c-.6,46.1-1.5,92.1-3.1,138.2-1.7-46.1-2.5-92.1-3.1-138.2l-.2-17.3-.1-17.3-.3-34.5-.2-69.1.2-69.1c.2-23,.3-46.1.7-69.1C1250.3-712.23,1251.1-758.23,1252.8-804.33Z" transform="translate(-788.86 827.15)"/><line class="cls-4" x1="566.24" y1="341.93" x2="2333.44" y2="341.93"/></svg>